# xmcd CD database file
#
# Track frame offsets:
#	150
#	13059
#	28382
#	54107
#	72493
#	88577
#	106884
#	120248
#	141272
#	153788
#	170109
#	185833
#	203207
#	218484
#
# Disc length: 3177 seconds
#
# Revision: 0
# Processed by: cddbd v1.5.2PL0 Copyright (c) Steve Scherf et al.
# Submitted via: CDex 1.51
#
DISCID=c20c670e
DTITLE=Various Artist - Mr. Music Country 02-08
DYEAR=2008
DGENRE=Country
TTITLE0=Jerry Adams - Coast Of Texas
TTITLE1=Rick Sousley - Rowdy
TTITLE2=Jason Boland and The Stragglers - Somewhere Down In Texas
TTITLE3=Montana Rose - She Sang The Red River Valley
TTITLE4=Mike Clifford - Get The 'L' Outta L.A.
TTITLE5=Kevin Banford - Old El Paso
TTITLE6=Jake Hooker - Honky Tonk Stardust Cowboy
TTITLE7=Tompall and The Glaser Brothers - Faded Love
TTITLE8=Ray Harrison - Somwhere Out In Texas
TTITLE9=Rodney Crowell - Banks Of The Old Bandera
TTITLE10=Tommy Jennings - Me And Them Three Brothers Of Mine
TTITLE11=Kevin Fowler - 100% Texan
TTITLE12=Mona McCall - Bandera
TTITLE13=Rusty Wier - Texas Love and War
EXTD=YEAR: 2008
EXTT0=
EXTT1=
EXTT2=
EXTT3=
EXTT4=
EXTT5=
EXTT6=
EXTT7=
EXTT8=
EXTT9=
EXTT10=
EXTT11=
EXTT12=
EXTT13=
PLAYORDER=
